 http://imageshack.us/m/855/2894/1234617poster1f.jpg

Country.......: USA
Genre.........: Comedy, Romance, Drama
Date release..: 28.01.2011 [World]
Director......: Angel Gracia
Writers.......: Fina Torres, Luis Alfaro
Duration......: 107 min.
More..........: http://www.imdb.com/title/tt0893412
Trailer.......: http://www.imdb.com/video/imdb/vi1774782745
Trailer.......:

Pilot :
A Latina spin on Jane Austen's "Sense and Sensibility," where two spoiled sisters who have been left penniless after their father's sudden death are forced to move in with their estranged aunt in East Los Angeles. 

Cats :
Camilla Belle   	 ...  	Nora Dominguez
Alexa Vega 	... 	Mary Dominguez
Tina French 	... 	Old Librarian
Luis Rosales 	... 	Juanito
Pablo Martinez de Velasco 	... 	Pablo the Gardener
Alexis Ayala 	... 	Gabriel Dominguez Sr.
Norma Reyna 	... 	Carmina
Adriana Barraza 	... 	Aurelia Jimenez
Catalina Lopez 	... 	Trinita
Jose Maria Negri 	... 	Benjamin Kerensky
Mario Zaragoza 	... 	Federico
Pablo Cruz 	... 	Gabriel Dominguez Jr.
April Bowlby 	... 	Olivia
Nicholas D Agosto 	... 	Edward Ferris
Begona Narvaez 	... 	Carry Sullivan 

Data Technical :
!!! SAMPLE !!!
Audio.....: English
Subtitles.: English .srt, Spanish .srt, Dutch .srt
Format                           : AVI
Format/Info                      : Audio Video Interleave
File size                        : 700 MiB
Duration                         : 1h 46mn
Overall bit rate                 : 918 Kbps
Writing application              : Nandub v1.0rc2
Writing library                  : Nandub build 1852/release
Video
ID                               : 0
Format                           : MPEG-4 Visual
Format profile                   : Advanced Simple@L5
Format settings, BVOP            : Yes
Format settings, QPel            : No
Format settings, GMC             : No warppoints
Format settings, Matrix          : Default (H.263)
Codec ID                         : XVID
Codec ID/Hint                    : XviD
Duration                         : 1h 46mn
Bit rate                         : 776 Kbps
Width                            : 624 pixels
Height                           : 352 pixels
Display aspect ratio             : 16:9
Frame rate                       : 23.976 fps
Color space                      : YUV
Chroma subsampling               : 4:2:0
Bit depth                        : 8 bits
Scan type                        : Progressive
Bits/(Pixel*Frame)               : 0.147
Stream size                      : 591 MiB (84%)
Writing library                  : XviD 1.2.1 (UTC 2008-12-04)
Audio
ID                               : 1
Format                           : MPEG Audio
Format version                   : Version 1
Format profile                   : Layer 3
Mode                             : Joint stereo
Mode extension                   : MS Stereo
Codec ID                         : 55
Codec ID/Hint                    : MP3
Duration                         : 1h 46mn
Bit rate mode                    : Variable
Bit rate                         : 130 Kbps
Nominal bit rate                 : 144 Kbps
Channel(s)                       : 2 channels
Sampling rate                    : 48.0 KHz
Stream size                      : 99.1 MiB (14%)
Alignment                        : Aligned on interleaves
Interleave, duration             : 24 ms (0.58 video frame)
Interleave, preload duration     : 135 ms
Writing library                  : LAME3.98r
Encoding settings                : -m j -V 4 -q 2 -lowpass 17.5 --abr 144

Screen : 
http://imageshack.us/m/163/8600/frompradatonada2011s1.jpg 
http://imageshack.us/m/709/6866/frompradatonada2011s2.jpg 
http://imageshack.us/m/101/1581/frompradatonada2011s3.jpg 
http://imageshack.us/m/19/9310/frompradatonada2011s4.jpg 
http://imageshack.us/m/820/1675/frompradatonada2011s5.jpg